<svg id="Icons" height="512" viewBox="0 0 74 74" width="512" xmlns="http://www.w3.org/2000/svg"><path d="m65 58.75h-56a7.008 7.008 0 0 1 -7-7 1 1 0 0 1 1-1h68a1 1 0 0 1 1 1 7.008 7.008 0 0 1 -7 7zm-60.9-6a5.008 5.008 0 0 0 4.9 4h56a5.008 5.008 0 0 0 4.9-4z"/><path d="m65.9 52.75h-57.8a1 1 0 0 1 -1-1v-1.1a29.9 29.9 0 1 1 59.8 0v1.1a1 1 0 0 1 -1 1zm-56.8-2h55.8v-.1a27.9 27.9 0 1 0 -55.8 0z"/><path d="m40.5 22.971a1.02 1.02 0 0 1 -.255-.033 1 1 0 0 1 -.714-1.222l.926-3.529a.747.747 0 0 0 -.723-.937h-5.47a.747.747 0 0 0 -.723.937l.926 3.529a1 1 0 1 1 -1.936.508l-.926-3.531a2.748 2.748 0 0 1 2.659-3.443h5.47a2.748 2.748 0 0 1 2.659 3.443l-.926 3.531a1 1 0 0 1 -.967.747z"/></svg>