<?xml version="1.0" encoding="UTF-8"?>
<svg xmlns="http://www.w3.org/2000/svg" id="Icons" viewBox="0 0 74 74" width="512" height="512"><path d="M39,53.79A18.29,18.29,0,1,1,57.29,35.5,18.311,18.311,0,0,1,39,53.79Zm0-34.58A16.29,16.29,0,1,0,55.29,35.5,16.309,16.309,0,0,0,39,19.21Z"/><path d="M39,48.333A12.833,12.833,0,1,1,51.833,35.5,12.848,12.848,0,0,1,39,48.333Zm0-23.666A10.833,10.833,0,1,0,49.833,35.5,10.846,10.846,0,0,0,39,24.667Z"/><path d="M72,43.6H61.6V27.151a11.344,11.344,0,0,1,9.213-11.133L72,15.792Zm-8.4-2H70V18.29a9.346,9.346,0,0,0-6.4,8.861Z"/><path d="M68.725,58a3.279,3.279,0,0,1-3.275-3.275V41.6H72V54.725A3.279,3.279,0,0,1,68.725,58ZM67.45,43.6V54.725a1.275,1.275,0,0,0,2.55,0V43.6Z"/><path d="M10.071,38C5.621,38,2,33.514,2,28s3.621-10,8.071-10,8.072,4.486,8.072,10S14.522,38,10.071,38Zm0-18C6.724,20,4,23.589,4,28s2.724,8,6.071,8,6.072-3.589,6.072-8S13.419,20,10.071,20Z"/><path d="M10.071,56a3.5,3.5,0,0,1-3.5-3.5V36.42h2V52.5a1.5,1.5,0,0,0,3,0V36.42h2V52.5A3.5,3.5,0,0,1,10.071,56Z"/></svg>
