<svg id="Icons" height="512" viewBox="0 0 74 74" width="512" xmlns="http://www.w3.org/2000/svg"><path d="m58.469 72h-42.938a1 1 0 0 1 -.97-.759l-4.812-19.341a1 1 0 1 1 1.94-.482l4.623 18.582h41.376l4.623-18.582a1 1 0 0 1 1.94.482l-4.812 19.341a1 1 0 0 1 -.97.759z"/><path d="m59.4 53.492a10.625 10.625 0 0 1 -9.292-5.492 8.916 8.916 0 0 1 -13.108-.237 8.916 8.916 0 0 1 -13.108.237 10.625 10.625 0 0 1 -9.287 5.492 10.3 10.3 0 0 1 -4.3-.923 10.584 10.584 0 0 1 2.684-20.131c.4-10.495 7.787-18.365 19.052-20.209a1 1 0 0 1 .323 1.974c-10.564 1.729-17.393 9.224-17.393 19.097a1.036 1.036 0 0 1 -.937 1.037 8.584 8.584 0 0 0 -2.912 16.41 8.333 8.333 0 0 0 3.483.748 8.621 8.621 0 0 0 8.113-5.744 1 1 0 0 1 1.789-.2 6.905 6.905 0 0 0 11.65.022 1.04 1.04 0 0 1 1.686 0 6.905 6.905 0 0 0 11.65-.022 1 1 0 0 1 1.789.2 8.621 8.621 0 0 0 8.118 5.741 8.32 8.32 0 0 0 3.472-.743 8.584 8.584 0 0 0 -2.9-16.415 1 1 0 0 1 -.937-1c0-9.909-6.826-17.4-17.392-19.133a1 1 0 0 1 .323-1.974c11.278 1.846 18.671 9.732 19.054 20.209a10.585 10.585 0 0 1 2.671 20.136 10.283 10.283 0 0 1 -4.291.92z"/><path d="m48.9 66.219c-.032 0-.064 0-.1 0a1 1 0 0 1 -.9-1.09l.894-9.375a1 1 0 0 1 1.991.189l-.893 9.375a1 1 0 0 1 -.992.901z"/><path d="m26.423 66.219a1 1 0 0 1 -.972-.77l-2.216-9.376a1 1 0 0 1 1.947-.46l2.218 9.376a1 1 0 0 1 -.743 1.2 1.018 1.018 0 0 1 -.234.03z"/><path d="m37 66.219a1 1 0 0 1 -1-1v-9.366a1 1 0 0 1 2 0v9.366a1 1 0 0 1 -1 1z"/><path d="m37 16.476a7.238 7.238 0 1 1 7.238-7.238 7.246 7.246 0 0 1 -7.238 7.238zm0-12.476a5.238 5.238 0 1 0 5.238 5.238 5.244 5.244 0 0 0 -5.238-5.238z"/></svg>